<?xml version="1.0" encoding="UTF-8" standalone="no"?>
<!-- Created with Inkscape (http://www.inkscape.org/) -->

<svg
   width="96.0px"
   height="96.0px"
   viewBox="0 0 48.0 48.0"
   version="1.1"
   id="SVGRoot"
   xmlns="http://www.w3.org/2000/svg"
   xmlns:svg="http://www.w3.org/2000/svg">
  <defs
     id="defs824" />
  <g
     id="layer1">
    <g
       id="g4023">
      <path
         id="path3041"
         style="fill:#b8ae91;stroke-width:0.3;stroke-linecap:square;paint-order:markers fill stroke;stop-color:#000000;fill-opacity:1"
         d="M 0,0 H 47.999999 V 48 H 0 Z" />
      <g
         id="g122862"
         transform="matrix(-1,0,0,1,48.236768,0)">
        <path
           style="font-variation-settings:normal;vector-effect:none;fill:#d89e3c;fill-opacity:1;stroke:#2a2117;stroke-width:0.15;stroke-linecap:square;stroke-linejoin:miter;stroke-miterlimit:4;stroke-dasharray:none;stroke-dashoffset:0;stroke-opacity:1;-inkscape-stroke:none;paint-order:markers fill stroke;stop-color:#000000"
           d="m 28.988873,21.355243 c -0.08014,0.0038 -0.254495,0.01196 -0.229283,-0.236572 0.02521,-0.248529 0.243804,-0.753724 0.613518,-1.091991 0.369713,-0.338267 0.890114,-0.509252 1.410688,-0.509098 0.520575,1.54e-4 1.040976,0.17114 1.408354,0.503882 0.367378,0.332742 0.6536,0.991421 0.587677,1.199436 -0.06592,0.208014 -0.823276,0.448319 -1.476423,0.450055 -0.653147,0.0017 -1.475777,-0.165373 -1.855082,-0.242424 -0.379305,-0.07705 -0.379305,-0.07705 -0.459449,-0.07329 z"
           id="path122856" />
        <path
           id="path122858"
           style="font-variation-settings:normal;vector-effect:none;fill:#23211e;fill-opacity:1;stroke:none;stroke-width:0.15;stroke-linecap:square;stroke-linejoin:miter;stroke-miterlimit:4;stroke-dasharray:none;stroke-dashoffset:0;stroke-opacity:1;-inkscape-stroke:none;paint-order:markers fill stroke;stop-color:#000000"
           d="m 30.802927,19.523252 c -0.448967,-1.32e-4 -0.89805,0.126724 -1.250208,0.378715 -0.09821,0.18243 -0.154138,0.391686 -0.155514,0.615162 -0.0025,0.402135 0.173677,0.760639 0.452311,1.000891 0.440328,0.07443 0.97714,0.1566 1.447395,0.158299 0.403882,-0.218492 0.679994,-0.648031 0.68304,-1.143159 0.002,-0.317394 -0.108544,-0.608176 -0.293748,-0.835578 -0.274079,-0.115481 -0.57837,-0.174239 -0.883276,-0.17433 z" />
        <path
           style="fill:#b2c3d2;fill-opacity:1;stroke:none;stroke-width:1px;stroke-linecap:butt;stroke-linejoin:miter;stroke-opacity:1"
           d="m 30.194293,20.08724 c 0.03244,-0.0051 0.0969,-0.01526 0.140349,0.01159 0.04345,0.02685 0.06611,0.09002 0.06512,0.149093 -9.9e-4,0.05908 -0.02402,0.111529 -0.07668,0.130023 -0.05266,0.0185 -0.125033,-6.01e-4 -0.16853,-0.03253 -0.0435,-0.03193 -0.05361,-0.07607 -0.04692,-0.120394 0.0067,-0.04432 0.03041,-0.0884 0.04232,-0.110536 0.01191,-0.02213 0.01191,-0.02213 0.04434,-0.02724 z"
           id="path122860" />
      </g>
      <path
         id="rect939"
         style="fill:#4d3c2b;stroke-width:0.299999;stroke-linecap:square;paint-order:markers fill stroke;stop-color:#000000;font-variation-settings:normal;opacity:1;vector-effect:none;fill-opacity:1;stroke:#2a2117;stroke-linejoin:miter;stroke-miterlimit:4;stroke-dasharray:none;stroke-dashoffset:0;stroke-opacity:1;-inkscape-stroke:none;stop-opacity:1"
         d="M 13 0 C 11.289751 1.2326775 11 6 11 6 L 37 6 C 37 6 36.710249 1.2326775 35 0 L 13 0 z " />
      <path
         id="rect1560"
         style="fill:#4d3c2b;stroke-width:0.3;stroke-linecap:square;paint-order:markers fill stroke;stop-color:#000000"
         d="m 8,34 c 2.982887,-1.59813 9.953125,-2 9.953125,-2 H 30.0625 c 0,0 6.959357,0.403829 9.9375,2 0.415491,0.222687 0.743125,0.604731 1,1 2.529922,3.892948 5,13 5,13 H 2 c 0,0 2.4700775,-9.107052 5,-13 0.2568747,-0.395269 0.5844754,-0.777376 1,-1 z" />
      <path
         id="rect1995"
         style="fill:#8ba7be;stroke:#3b5469;stroke-width:0.3;stroke-linecap:square;paint-order:markers fill stroke;stop-color:#000000"
         d="m 19,29 h 10 c 0,0 2.118399,5.556354 1,8 -1.000327,2.185663 -6,4 -6,4 0,0 -4.999673,-1.814337 -6,-4 -1.118399,-2.443646 1,-8 1,-8 z" />
      <path
         id="path1049"
         style="fill:#8ba7be;fill-opacity:1;stroke:#3b5469;stroke-width:0.3;stroke-linecap:square;stroke-opacity:1;paint-order:markers fill stroke;stop-color:#000000"
         d="m 37.908547,17.955317 c 0,3.869111 -3.861168,7.371933 -5.908547,9.907478 C 29.952621,30.398339 27.840739,33 24,33 20.159261,33 18.047379,30.398339 16,27.862795 13.952621,25.32725 10.091453,21.824428 10.091453,17.955317 10.091452,10.217095 16.318522,3.9440269 24,3.9440269 c 7.681478,0 13.908548,6.2730681 13.908547,14.0112901 z" />
      <g
         id="g91245">
        <path
           style="font-variation-settings:normal;opacity:1;vector-effect:none;fill:#8ba7be;fill-opacity:1;stroke:#3b5469;stroke-width:0.3;stroke-linecap:square;stroke-linejoin:miter;stroke-miterlimit:4;stroke-dasharray:none;stroke-dashoffset:0;stroke-opacity:1;-inkscape-stroke:none;paint-order:markers fill stroke;stop-color:#000000;stop-opacity:1"
           d="M 10.739184,14 C 10.260414,13.819042 9.7828495,13.63854 8.8362433,12.848575 7.889637,12.058611 6.4754519,10.659157 5.1347838,9.0682193 3.7941157,7.477282 2.5272414,5.6948193 1.8159416,4.6691123 1.1046418,3.6434054 0.94838753,3.3732718 0.7928143,3.1043155 0.65338955,2.8302144 0.51457723,2.5573172 0.44347668,2.584444 0.37237614,2.6115707 0.37021889,2.9401162 0.35531533,3.4057009 0.34041178,3.8712857 0.3074077,4.5915994 0.50331701,5.2657139 0.69922633,5.9398285 1.2817359,7.1558542 1.7346156,8.1751568 2.1874954,9.1944595 2.5057842,9.989196 2.845432,10.837264 c 0.1043835,-0.09836 0.2087954,-0.196743 0.3529846,-0.229775 0.1441892,-0.03303 0.3270587,-9.67e-4 0.3974622,0.109425 0.070404,0.110392 0.029632,0.298547 -0.078881,0.427234 -0.1085132,0.128688 -0.2859586,0.199051 -0.4628886,0.26921 0.2679094,0.935227 0.5361541,1.871624 0.96514,2.552671 0.428986,0.681047 1.0170994,1.10743 1.606355,1.53464 0.1364505,-0.106911 0.2730319,-0.213925 0.4059349,-0.280242 0.132903,-0.06632 0.2616161,-0.09199 0.3181318,-0.04297 0.056516,0.04902 0.041708,0.171706 -0.037537,0.300121 -0.079245,0.128415 -0.2230905,0.263476 -0.3669066,0.398509 0.051822,0.383093 0.1037929,0.767292 0.6108137,1.31226 0.5070208,0.544968 1.4682241,1.252061 2.1661585,1.67352 0.6979345,0.421459 1.1313145,0.55735 1.5658906,0.693615 -0.08102,-0.50455 -0.161862,-1.007961 -0.08684,-1.934051 0.07502,-0.92609 0.306545,-2.274152 0.537932,-3.621428 z"
           id="path84097" />
        <path
           style="font-variation-settings:normal;opacity:1;vector-effect:none;fill:#b2c3d2;fill-opacity:1;stroke:none;stroke-width:0.3;stroke-linecap:square;stroke-linejoin:miter;stroke-miterlimit:4;stroke-dasharray:none;stroke-dashoffset:0;stroke-opacity:1;-inkscape-stroke:none;paint-order:markers fill stroke;stop-color:#000000;stop-opacity:1"
           d="M 6.962411,14.269678 C 6.5372173,13.762624 5.6457813,13.676404 5.1678663,13.02211 4.6899512,12.367816 4.4880427,11.134424 4.0757062,10.335138 3.6633698,9.5358522 3.041747,9.1757051 2.4356472,8.2823318 1.8295474,7.3889586 1.240718,5.9624259 0.92496628,4.9781815 0.60921454,3.993937 0.56619163,3.4487926 0.52328305,2.9050967 0.47154471,3.0259605 0.41960051,3.1473052 0.38000614,3.5092954 0.34041178,3.8712857 0.3074077,4.5915994 0.50331701,5.2657139 0.69922633,5.9398285 1.2817359,7.1558542 1.7346156,8.1751568 2.1874954,9.1944595 2.5057842,9.989196 2.845432,10.837264 c 0.076762,-0.116772 0.1533652,-0.233303 0.3210724,-0.287133 0.1677071,-0.05383 0.4251451,-0.04451 0.518605,0.07696 0.09346,0.121471 0.024154,0.354468 -0.1077867,0.503794 -0.1319406,0.149326 -0.3278692,0.216 -0.5232135,0.282475 0.2679094,0.935228 0.5361542,1.871626 0.9651402,2.552674 0.428986,0.681047 1.0170994,1.10743 1.606355,1.53464 0.1180362,-0.123484 0.2360479,-0.246942 0.3937325,-0.33417 0.1576846,-0.08723 0.3542869,-0.137995 0.4199988,-0.06977 0.065712,0.06822 0.00143,0.254674 -0.1024602,0.404027 -0.1038867,0.149353 -0.2478322,0.262391 -0.3916483,0.375327 0.051822,0.383093 0.1037929,0.767292 0.6108137,1.31226 0.5070208,0.544968 1.4682241,1.252061 2.1661585,1.67352 0.6979345,0.421459 1.1313145,0.55735 1.5658906,0.693615 -0.08793,-0.374743 -0.176536,-0.752335 -0.218677,-1.030038 -0.04214,-0.277703 -0.03913,-0.463181 -0.03613,-0.647675 C 9.3660313,17.698433 8.7576274,17.534915 8.2346798,16.800901 7.7117322,16.066888 7.3876048,14.776733 6.962411,14.269678 Z"
           id="path87327" />
      </g>
      <g
         id="g91251"
         transform="matrix(-1,0,0,1,47.977743,3.0775146e-7)">
        <path
           style="font-variation-settings:normal;opacity:1;vector-effect:none;fill:#8ba7be;fill-opacity:1;stroke:#3b5469;stroke-width:0.3;stroke-linecap:square;stroke-linejoin:miter;stroke-miterlimit:4;stroke-dasharray:none;stroke-dashoffset:0;stroke-opacity:1;-inkscape-stroke:none;paint-order:markers fill stroke;stop-color:#000000;stop-opacity:1"
           d="M 10.739184,14 C 10.260414,13.819042 9.7828495,13.63854 8.8362433,12.848575 7.889637,12.058611 6.4754519,10.659157 5.1347838,9.0682193 3.7941157,7.477282 2.5272414,5.6948193 1.8159416,4.6691123 1.1046418,3.6434054 0.94838753,3.3732718 0.7928143,3.1043155 0.65338955,2.8302144 0.51457723,2.5573172 0.44347668,2.584444 0.37237614,2.6115707 0.37021889,2.9401162 0.35531533,3.4057009 0.34041178,3.8712857 0.3074077,4.5915994 0.50331701,5.2657139 0.69922633,5.9398285 1.2817359,7.1558542 1.7346156,8.1751568 2.1874954,9.1944595 2.5057842,9.989196 2.845432,10.837264 c 0.1043835,-0.09836 0.2087954,-0.196743 0.3529846,-0.229775 0.1441892,-0.03303 0.3270587,-9.67e-4 0.3974622,0.109425 0.070404,0.110392 0.029632,0.298547 -0.078881,0.427234 -0.1085132,0.128688 -0.2859586,0.199051 -0.4628886,0.26921 0.2679094,0.935227 0.5361541,1.871624 0.96514,2.552671 0.428986,0.681047 1.0170994,1.10743 1.606355,1.53464 0.1364505,-0.106911 0.2730319,-0.213925 0.4059349,-0.280242 0.132903,-0.06632 0.2616161,-0.09199 0.3181318,-0.04297 0.056516,0.04902 0.041708,0.171706 -0.037537,0.300121 -0.079245,0.128415 -0.2230905,0.263476 -0.3669066,0.398509 0.051822,0.383093 0.1037929,0.767292 0.6108137,1.31226 0.5070208,0.544968 1.4682241,1.252061 2.1661585,1.67352 0.6979345,0.421459 1.1313145,0.55735 1.5658906,0.693615 -0.08102,-0.50455 -0.161862,-1.007961 -0.08684,-1.934051 0.07502,-0.92609 0.306545,-2.274152 0.537932,-3.621428 z"
           id="path91247" />
        <path
           style="font-variation-settings:normal;opacity:1;vector-effect:none;fill:#b2c3d2;fill-opacity:1;stroke:none;stroke-width:0.3;stroke-linecap:square;stroke-linejoin:miter;stroke-miterlimit:4;stroke-dasharray:none;stroke-dashoffset:0;stroke-opacity:1;-inkscape-stroke:none;paint-order:markers fill stroke;stop-color:#000000;stop-opacity:1"
           d="M 6.962411,14.269678 C 6.5372173,13.762624 5.6457813,13.676404 5.1678663,13.02211 4.6899512,12.367816 4.4880427,11.134424 4.0757062,10.335138 3.6633698,9.5358522 3.041747,9.1757051 2.4356472,8.2823318 1.8295474,7.3889586 1.240718,5.9624259 0.92496628,4.9781815 0.60921454,3.993937 0.56619163,3.4487926 0.52328305,2.9050967 0.47154471,3.0259605 0.41960051,3.1473052 0.38000614,3.5092954 0.34041178,3.8712857 0.3074077,4.5915994 0.50331701,5.2657139 0.69922633,5.9398285 1.2817359,7.1558542 1.7346156,8.1751568 2.1874954,9.1944595 2.5057842,9.989196 2.845432,10.837264 c 0.076762,-0.116772 0.1533652,-0.233303 0.3210724,-0.287133 0.1677071,-0.05383 0.4251451,-0.04451 0.518605,0.07696 0.09346,0.121471 0.024154,0.354468 -0.1077867,0.503794 -0.1319406,0.149326 -0.3278692,0.216 -0.5232135,0.282475 0.2679094,0.935228 0.5361542,1.871626 0.9651402,2.552674 0.428986,0.681047 1.0170994,1.10743 1.606355,1.53464 0.1180362,-0.123484 0.2360479,-0.246942 0.3937325,-0.33417 0.1576846,-0.08723 0.3542869,-0.137995 0.4199988,-0.06977 0.065712,0.06822 0.00143,0.254674 -0.1024602,0.404027 -0.1038867,0.149353 -0.2478322,0.262391 -0.3916483,0.375327 0.051822,0.383093 0.1037929,0.767292 0.6108137,1.31226 0.5070208,0.544968 1.4682241,1.252061 2.1661585,1.67352 0.6979345,0.421459 1.1313145,0.55735 1.5658906,0.693615 -0.08793,-0.374743 -0.176536,-0.752335 -0.218677,-1.030038 -0.04214,-0.277703 -0.03913,-0.463181 -0.03613,-0.647675 C 9.3660313,17.698433 8.7576274,17.534915 8.2346798,16.800901 7.7117322,16.066888 7.3876048,14.776733 6.962411,14.269678 Z"
           id="path91249" />
      </g>
      <path
         id="rect1787"
         style="fill:#4d3c2b;fill-opacity:1;stroke:#2a2117;stroke-width:0.3;stroke-linecap:square;stroke-opacity:1;paint-order:markers fill stroke;stop-color:#000000"
         d="m 10,6 c 3.852537,-2.8170439 9.227393,-3 14,-3 4.772607,0 10.147463,0.1829561 14,3 1.084667,0.7931281 2,2.1562904 2,3.5 0,1.34371 -2,3.5 -2,3.5 0,0 -0.389367,0.956972 -0.664174,0.963103 C 37.256423,13.964875 35.97518,12.021506 33,11 30.202747,10.039584 25.761374,9.9972178 23.898112,10 22.178875,10.002567 16.579139,10.1056 14,11 10.852571,12.091473 10.835822,14.012542 10.739184,14 10.563358,13.977179 10,13 10,13 10,13 8,10.84371 8,9.5 8,8.1562904 8.9153326,6.7931281 10,6 Z" />
      <ellipse
         style="font-variation-settings:normal;opacity:1;vector-effect:none;fill:#3b5469;fill-opacity:1;stroke:#3b5469;stroke-width:0.0999996;stroke-linecap:butt;stroke-linejoin:miter;stroke-miterlimit:4;stroke-dasharray:none;stroke-dashoffset:0;stroke-opacity:1;-inkscape-stroke:none;paint-order:markers fill stroke;stop-color:#000000;stop-opacity:1"
         id="path41592"
         cx="29.793287"
         cy="6.0371866"
         rx="0.31266126"
         ry="0.28335783"
         transform="rotate(30)" />
      <ellipse
         style="font-variation-settings:normal;opacity:1;vector-effect:none;fill:#3b5469;fill-opacity:1;stroke:#3b5469;stroke-width:0.0999996;stroke-linecap:butt;stroke-linejoin:miter;stroke-miterlimit:4;stroke-dasharray:none;stroke-dashoffset:0;stroke-opacity:1;-inkscape-stroke:none;paint-order:markers fill stroke;stop-color:#000000;stop-opacity:1"
         id="ellipse41594"
         cx="11.775933"
         cy="30.037186"
         rx="0.31266126"
         ry="0.28335783"
         transform="rotate(-30)" />
      <path
         style="font-variation-settings:normal;opacity:1;vector-effect:none;fill:none;fill-opacity:1;stroke:#3b5469;stroke-width:0.0894427;stroke-linecap:butt;stroke-linejoin:miter;stroke-miterlimit:4;stroke-dasharray:none;stroke-dashoffset:0;stroke-opacity:1;-inkscape-stroke:none;paint-order:markers fill stroke;stop-color:#000000;stop-opacity:1"
         id="path41804"
         d="M 26.499619,-30.456369 A 2.5,2.5 0 0 1 23.978076,-28.000096 2.5,2.5 0 0 1 21.5,-30.500214"
         transform="scale(1,-1)" />
      <path
         style="fill:#3b5469;fill-opacity:1;fill-rule:nonzero;stroke:none;stroke-width:1px;stroke-linecap:butt;stroke-linejoin:miter;stroke-opacity:1"
         d="m 18.140625,25.757813 c 0.0091,0.0223 0.01852,0.05538 0.02935,0.09451 0.08394,0.192463 0.207481,0.396089 0.383912,0.570555 0.161376,0.159576 0.364887,0.291043 0.596254,0.360355 0.215319,0.06502 0.441883,0.07268 0.655643,0.04303 0.232511,-0.03224 0.446824,-0.107296 0.628579,-0.189358 0.169933,-0.07873 0.331898,-0.17275 0.465014,-0.252036 0.205027,-0.122115 0.290849,-0.176768 0.444766,-0.262608 0.109275,-0.06094 0.274598,-0.150218 0.455665,-0.21651 0.141476,-0.0518 0.303752,-0.09416 0.478062,-0.100986 0.216382,-0.01135 0.437077,0.03128 0.678483,0.100356 0.233152,0.06671 0.466288,0.149448 0.684572,0.198694 0.156064,0.02932 0.279435,0.04079 0.367172,0.05193 -0.08501,-0.01079 -0.211844,-0.03915 -0.35698,-0.09007 -0.210672,-0.06535 -0.432266,-0.166794 -0.663019,-0.255374 -0.236159,-0.09065 -0.470509,-0.159573 -0.711908,-0.166032 -0.196922,-0.003 -0.379816,0.03551 -0.53646,0.08545 -0.201161,0.06414 -0.378422,0.153973 -0.493003,0.217875 -0.144457,0.08056 -0.261954,0.156215 -0.447864,0.272848 -0.130365,0.08179 -0.283646,0.176457 -0.441886,0.255941 -0.167225,0.08618 -0.362417,0.167563 -0.574787,0.210761 -0.195007,0.03967 -0.404178,0.04631 -0.606169,-4.94e-4 -0.217574,-0.05096 -0.41739,-0.162086 -0.581943,-0.306807 -0.179905,-0.158226 -0.311915,-0.349859 -0.404341,-0.536699 -0.02283,-0.03322 -0.03996,-0.06292 -0.04911,-0.08533 z"
         id="path56817" />
      <path
         style="fill:#3b5469;fill-opacity:1;fill-rule:nonzero;stroke:none;stroke-width:1px;stroke-linecap:butt;stroke-linejoin:miter;stroke-opacity:1"
         d="m 27.997234,26.824283 c -0.458956,-0.09656 -1.180101,-0.207462 -2.062356,-0.190133 -0.482206,0.0112 -0.962875,0.05968 -1.442341,0.115043 -0.200642,0.02782 -0.386902,0.05426 -0.490436,0.06608 0,0 -0.0049,-0.04264 -0.0049,-0.04264 0,0 -0.0049,-0.04264 -0.0049,-0.04264 0.107415,-0.01226 0.287892,-0.0269 0.493938,-0.04104 0.481489,-0.04408 0.964467,-0.08029 1.448287,-0.08008 0.885988,-0.0028 1.602562,0.118607 2.062644,0.215405 z"
         id="path63129" />
      <path
         style="fill:#3b5469;fill-opacity:1;fill-rule:nonzero;stroke:none;stroke-width:1px;stroke-linecap:butt;stroke-linejoin:miter;stroke-opacity:1"
         d="m 28.021693,26.661095 c -0.355925,0.355856 -1.046308,0.840151 -2.007133,0.950105 -0.339065,0.03753 -0.679403,0.02442 -0.990197,0.0047 -0.479776,-0.03048 -0.677216,-0.05365 -0.98204,-0.05473 -0.0085,-3.1e-5 -0.01719,-3.6e-5 -0.02605,-1.5e-5 -0.317115,7.64e-4 -0.520802,0.0249 -1.008055,0.05582 -0.312608,0.01984 -0.652121,0.03262 -0.990348,-0.005 -0.96151,-0.110386 -1.651493,-0.59544 -2.00702,-0.950897 0.35349,0.353421 1.011851,0.881802 1.99298,1.049103 0.345199,0.06014 0.693072,0.06851 1.010022,0.06609 0.414031,-0.0032 0.770893,-0.0158 1.002421,-0.01523 0.0011,3e-6 0.02427,7.5e-5 0.02534,7.7e-5 0.22095,7.85e-4 0.569361,0.01314 0.977039,0.01622 0.315151,0.0024 0.663992,-0.0059 1.010174,-0.06638 0.980951,-0.167614 1.638946,-0.696043 1.992867,-1.049895 z"
         id="path60992" />
      <path
         style="fill:#3b5469;fill-opacity:1;fill-rule:nonzero;stroke:none;stroke-width:1px;stroke-linecap:butt;stroke-linejoin:miter;stroke-opacity:1"
         d="m 20.002766,26.824283 c 0.458931,-0.09656 1.180183,-0.207198 2.062349,-0.189512 0.482166,0.01148 0.962778,0.06026 1.442195,0.115902 0.200758,0.02818 0.386662,0.05486 0.49035,0.0667 0,0 0.0051,-0.04474 0.0051,-0.04474 0,0 0.0051,-0.04474 0.0051,-0.04474 -0.107374,-0.01226 -0.287982,-0.02663 -0.494024,-0.04042 -0.481539,-0.04381 -0.964573,-0.07971 -1.448433,-0.07922 -0.886082,-0.0024 -1.602539,0.119222 -2.062651,0.216026 z"
         id="path76171" />
      <path
         style="fill:#3b5469;fill-opacity:1;fill-rule:nonzero;stroke:none;stroke-width:1px;stroke-linecap:butt;stroke-linejoin:miter;stroke-opacity:1"
         d="m 29.443678,25.095381 c 0.09481,0.05543 0.217167,0.162571 0.292621,0.324885 0.05708,0.122776 0.08466,0.271865 0.06263,0.424621 -0.0141,0.111495 -0.05395,0.219472 -0.114186,0.318036 -0.05902,0.09658 -0.136836,0.182788 -0.226307,0.252682 -0.181485,0.141803 -0.405083,0.218588 -0.625359,0.249794 -0.205179,0.03175 -0.409591,0.02502 -0.603559,-0.0079 -0.209071,-0.03548 -0.405461,-0.101221 -0.580816,-0.182245 -0.160237,-0.0746 -0.312945,-0.165835 -0.443957,-0.246651 -0.192995,-0.11905 -0.295871,-0.18678 -0.44657,-0.271994 -0.113378,-0.06411 -0.290643,-0.155938 -0.490384,-0.221964 -0.155895,-0.05153 -0.338422,-0.09203 -0.535357,-0.09038 -0.241773,0.0049 -0.476641,0.0737 -0.712775,0.164699 -0.230754,0.08893 -0.452077,0.191114 -0.662704,0.256705 -0.145079,0.05109 -0.271926,0.07937 -0.356959,0.09007 0.08765,-0.01102 0.211233,-0.02245 0.367193,-0.05193 0.218309,-0.04951 0.451286,-0.133029 0.684343,-0.200058 0.241331,-0.0694 0.462111,-0.111774 0.67816,-0.09899 0.173802,0.008 0.335396,0.05204 0.476159,0.105281 0.179624,0.06794 0.34542,0.159341 0.453881,0.22067 0.122064,0.06902 0.270625,0.160577 0.445754,0.263092 0.13459,0.07878 0.297246,0.17008 0.470658,0.244224 0.190203,0.08194 0.402944,0.14663 0.628953,0.178124 0.209787,0.02923 0.430926,0.02971 0.651849,-0.01167 0.236613,-0.04721 0.475416,-0.144689 0.665447,-0.311996 0.09391,-0.08267 0.173201,-0.181743 0.231178,-0.290302 0.05925,-0.110947 0.09552,-0.23037 0.103974,-0.351606 0.0089,-0.16587 -0.03426,-0.319074 -0.101843,-0.440224 -0.09059,-0.162378 -0.218235,-0.260126 -0.312028,-0.314966 z"
         id="path78215" />
      <g
         id="g122753"
         transform="rotate(-9.4258297,35.442978,15.733678)">
        <path
           style="font-variation-settings:normal;vector-effect:none;fill:#d89e3c;fill-opacity:1;stroke:#2a2117;stroke-width:0.15;stroke-linecap:square;stroke-linejoin:miter;stroke-miterlimit:4;stroke-dasharray:none;stroke-dashoffset:0;stroke-opacity:1;-inkscape-stroke:none;paint-order:markers fill stroke;stop-color:#000000"
           d="m 27.98921,17.209833 c -0.882794,-0.14287 -1.21795,-0.126896 -1.169504,-0.611383 0.04845,-0.484487 0.468481,-1.469332 1.178903,-2.128765 0.710422,-0.659433 1.710402,-0.99276 2.710722,-0.99246 1.00032,3e-4 2.0003,0.333627 2.706234,0.982283 0.705933,0.648656 1.252715,1.925214 1.127641,2.334476 -0.125073,0.409262 -1.580368,0.877721 -2.835421,0.881104 -1.255052,0.0034 -2.835781,-0.322384 -3.718575,-0.465255 z"
           id="path101547" />
        <path
           id="path95232"
           style="font-variation-settings:normal;vector-effect:none;fill:#23211e;fill-opacity:1;stroke:none;stroke-width:0.15;stroke-linecap:square;stroke-linejoin:miter;stroke-miterlimit:4;stroke-dasharray:none;stroke-dashoffset:0;stroke-opacity:1;-inkscape-stroke:none;paint-order:markers fill stroke;stop-color:#000000"
           d="m 30.746094,13.488281 c -0.862715,-2.58e-4 -1.725653,0.24704 -2.402344,0.738281 -0.188726,0.355634 -0.296184,0.763566 -0.298828,1.199219 -0.0048,0.783935 0.33373,1.482816 0.86914,1.951172 0.846115,0.145092 1.877628,0.305281 2.78125,0.308594 0.776081,-0.425936 1.306647,-1.263295 1.3125,-2.228516 0.0038,-0.618738 -0.208573,-1.185599 -0.564453,-1.628906 -0.526658,-0.225122 -1.111371,-0.339668 -1.697265,-0.339844 z" />
        <path
           style="fill:#b2c3d2;fill-opacity:1;stroke:none;stroke-width:1px;stroke-linecap:butt;stroke-linejoin:miter;stroke-opacity:1"
           d="m 29.223424,16.367106 c 0.08522,-0.05311 0.209067,-0.0729 0.292561,-0.02055 0.08349,0.05234 0.127028,0.175481 0.125124,0.290656 -0.0019,0.115176 -0.04615,0.217422 -0.147327,0.25347 -0.101176,0.03605 -0.240251,-0.0012 -0.323835,-0.06343 -0.08358,-0.06225 -0.103011,-0.148303 -0.09016,-0.2347 0.01285,-0.0864 0.05842,-0.172328 0.143641,-0.22544 z"
           id="path109755" />
      </g>
      <g
         id="g122761"
         transform="matrix(-0.98715775,-0.15974853,-0.15974853,0.98715775,50.049453,5.8878066)">
        <path
           style="font-variation-settings:normal;vector-effect:none;fill:#d89e3c;fill-opacity:1;stroke:#2a2117;stroke-width:0.15;stroke-linecap:square;stroke-linejoin:miter;stroke-miterlimit:4;stroke-dasharray:none;stroke-dashoffset:0;stroke-opacity:1;-inkscape-stroke:none;paint-order:markers fill stroke;stop-color:#000000"
           d="m 27.98921,17.209833 c -0.882794,-0.14287 -1.21795,-0.126896 -1.169504,-0.611383 0.04845,-0.484487 0.468481,-1.469332 1.178903,-2.128765 0.710422,-0.659433 1.710402,-0.99276 2.710722,-0.99246 1.00032,3e-4 2.0003,0.333627 2.706234,0.982283 0.705933,0.648656 1.252715,1.925214 1.127641,2.334476 -0.125073,0.409262 -1.580368,0.877721 -2.835421,0.881104 -1.255052,0.0034 -2.835781,-0.322384 -3.718575,-0.465255 z"
           id="path122755" />
        <path
           id="path122757"
           style="font-variation-settings:normal;vector-effect:none;fill:#23211e;fill-opacity:1;stroke:none;stroke-width:0.15;stroke-linecap:square;stroke-linejoin:miter;stroke-miterlimit:4;stroke-dasharray:none;stroke-dashoffset:0;stroke-opacity:1;-inkscape-stroke:none;paint-order:markers fill stroke;stop-color:#000000"
           d="m 30.746094,13.488281 c -0.862715,-2.58e-4 -1.725653,0.24704 -2.402344,0.738281 -0.188726,0.355634 -0.296184,0.763566 -0.298828,1.199219 -0.0048,0.783935 0.33373,1.482816 0.86914,1.951172 0.846115,0.145092 1.877628,0.305281 2.78125,0.308594 0.776081,-0.425936 1.306647,-1.263295 1.3125,-2.228516 0.0038,-0.618738 -0.208573,-1.185599 -0.564453,-1.628906 -0.526658,-0.225122 -1.111371,-0.339668 -1.697265,-0.339844 z" />
        <path
           style="fill:#b2c3d2;fill-opacity:1;stroke:none;stroke-width:1px;stroke-linecap:butt;stroke-linejoin:miter;stroke-opacity:1"
           d="m 29.223424,16.367106 c 0.08522,-0.05311 0.209067,-0.0729 0.292561,-0.02055 0.08349,0.05234 0.127028,0.175481 0.125124,0.290656 -0.0019,0.115176 -0.04615,0.217422 -0.147327,0.25347 -0.101176,0.03605 -0.240251,-0.0012 -0.323835,-0.06343 -0.08358,-0.06225 -0.103011,-0.148303 -0.09016,-0.2347 0.01285,-0.0864 0.05842,-0.172328 0.143641,-0.22544 z"
           id="path122759" />
      </g>
      <g
         id="g122878"
         transform="translate(-0.997625)">
        <path
           style="font-variation-settings:normal;vector-effect:none;fill:#d89e3c;fill-opacity:1;stroke:#2a2117;stroke-width:0.15;stroke-linecap:square;stroke-linejoin:miter;stroke-miterlimit:4;stroke-dasharray:none;stroke-dashoffset:0;stroke-opacity:1;-inkscape-stroke:none;paint-order:markers fill stroke;stop-color:#000000"
           d="m 28.988873,21.355243 c -0.08014,0.0038 -0.254495,0.01196 -0.229283,-0.236572 0.02521,-0.248529 0.243804,-0.753724 0.613518,-1.091991 0.369713,-0.338267 0.890114,-0.509252 1.410688,-0.509098 0.520575,1.54e-4 1.040976,0.17114 1.408354,0.503882 0.367378,0.332742 0.6536,0.991421 0.587677,1.199436 -0.06592,0.208014 -0.823276,0.448319 -1.476423,0.450055 -0.653147,0.0017 -1.475777,-0.165373 -1.855082,-0.242424 -0.379305,-0.07705 -0.379305,-0.07705 -0.459449,-0.07329 z"
           id="path122423" />
        <path
           id="path122425"
           style="font-variation-settings:normal;vector-effect:none;fill:#23211e;fill-opacity:1;stroke:none;stroke-width:0.15;stroke-linecap:square;stroke-linejoin:miter;stroke-miterlimit:4;stroke-dasharray:none;stroke-dashoffset:0;stroke-opacity:1;-inkscape-stroke:none;paint-order:markers fill stroke;stop-color:#000000"
           d="m 30.802927,19.523252 c -0.448967,-1.32e-4 -0.89805,0.126724 -1.250208,0.378715 -0.09821,0.18243 -0.154138,0.391686 -0.155514,0.615162 -0.0025,0.402135 0.173677,0.760639 0.452311,1.000891 0.440328,0.07443 0.97714,0.1566 1.447395,0.158299 0.403882,-0.218492 0.679994,-0.648031 0.68304,-1.143159 0.002,-0.317394 -0.108544,-0.608176 -0.293748,-0.835578 -0.274079,-0.115481 -0.57837,-0.174239 -0.883276,-0.17433 z" />
        <path
           style="fill:#b2c3d2;fill-opacity:1;stroke:none;stroke-width:1px;stroke-linecap:butt;stroke-linejoin:miter;stroke-opacity:1"
           d="m 30.194293,20.08724 c 0.03244,-0.0051 0.0969,-0.01526 0.140349,0.01159 0.04345,0.02685 0.06611,0.09002 0.06512,0.149093 -9.9e-4,0.05908 -0.02402,0.111529 -0.07668,0.130023 -0.05266,0.0185 -0.125033,-6.01e-4 -0.16853,-0.03253 -0.0435,-0.03193 -0.05361,-0.07607 -0.04692,-0.120394 0.0067,-0.04432 0.03041,-0.0884 0.04232,-0.110536 0.01191,-0.02213 0.01191,-0.02213 0.04434,-0.02724 z"
           id="path122427" />
      </g>
      <g
         id="g122886"
         transform="matrix(-1,0,0,1,49.149046,0)">
        <path
           style="font-variation-settings:normal;vector-effect:none;fill:#d89e3c;fill-opacity:1;stroke:#2a2117;stroke-width:0.15;stroke-linecap:square;stroke-linejoin:miter;stroke-miterlimit:4;stroke-dasharray:none;stroke-dashoffset:0;stroke-opacity:1;-inkscape-stroke:none;paint-order:markers fill stroke;stop-color:#000000"
           d="m 28.988873,21.355243 c -0.08014,0.0038 -0.254495,0.01196 -0.229283,-0.236572 0.02521,-0.248529 0.243804,-0.753724 0.613518,-1.091991 0.369713,-0.338267 0.890114,-0.509252 1.410688,-0.509098 0.520575,1.54e-4 1.040976,0.17114 1.408354,0.503882 0.367378,0.332742 0.6536,0.991421 0.587677,1.199436 -0.06592,0.208014 -0.823276,0.448319 -1.476423,0.450055 -0.653147,0.0017 -1.475777,-0.165373 -1.855082,-0.242424 -0.379305,-0.07705 -0.379305,-0.07705 -0.459449,-0.07329 z"
           id="path122880" />
        <path
           id="path122882"
           style="font-variation-settings:normal;vector-effect:none;fill:#23211e;fill-opacity:1;stroke:none;stroke-width:0.15;stroke-linecap:square;stroke-linejoin:miter;stroke-miterlimit:4;stroke-dasharray:none;stroke-dashoffset:0;stroke-opacity:1;-inkscape-stroke:none;paint-order:markers fill stroke;stop-color:#000000"
           d="m 30.802927,19.523252 c -0.448967,-1.32e-4 -0.89805,0.126724 -1.250208,0.378715 -0.09821,0.18243 -0.154138,0.391686 -0.155514,0.615162 -0.0025,0.402135 0.173677,0.760639 0.452311,1.000891 0.440328,0.07443 0.97714,0.1566 1.447395,0.158299 0.403882,-0.218492 0.679994,-0.648031 0.68304,-1.143159 0.002,-0.317394 -0.108544,-0.608176 -0.293748,-0.835578 -0.274079,-0.115481 -0.57837,-0.174239 -0.883276,-0.17433 z" />
        <path
           style="fill:#b2c3d2;fill-opacity:1;stroke:none;stroke-width:1px;stroke-linecap:butt;stroke-linejoin:miter;stroke-opacity:1"
           d="m 30.194293,20.08724 c 0.03244,-0.0051 0.0969,-0.01526 0.140349,0.01159 0.04345,0.02685 0.06611,0.09002 0.06512,0.149093 -9.9e-4,0.05908 -0.02402,0.111529 -0.07668,0.130023 -0.05266,0.0185 -0.125033,-6.01e-4 -0.16853,-0.03253 -0.0435,-0.03193 -0.05361,-0.07607 -0.04692,-0.120394 0.0067,-0.04432 0.03041,-0.0884 0.04232,-0.110536 0.01191,-0.02213 0.01191,-0.02213 0.04434,-0.02724 z"
           id="path122884" />
      </g>
      <path
         style="fill:#3b5469;fill-opacity:1;fill-rule:nonzero;stroke:none;stroke-width:1px;stroke-linecap:butt;stroke-linejoin:miter;stroke-opacity:1"
         d="m 29.875568,25.757818 c -0.0091,0.02241 -0.02628,0.05211 -0.04911,0.08533 -0.09243,0.18684 -0.224436,0.378473 -0.404341,0.536699 -0.164553,0.144721 -0.364369,0.25585 -0.581943,0.306807 -0.201991,0.0468 -0.411162,0.04017 -0.606168,4.94e-4 -0.212371,-0.0432 -0.407563,-0.124584 -0.574788,-0.210761 -0.15824,-0.07948 -0.311521,-0.174155 -0.441886,-0.255941 -0.18591,-0.116633 -0.303407,-0.192284 -0.447864,-0.272848 -0.114581,-0.0639 -0.291842,-0.153733 -0.493003,-0.217875 -0.156644,-0.04995 -0.339538,-0.0884 -0.53646,-0.08545 -0.241399,0.0065 -0.475749,0.07538 -0.711908,0.166032 -0.230753,0.08858 -0.452347,0.190024 -0.663019,0.255374 -0.145136,0.05093 -0.271971,0.07929 -0.35698,0.09007 0.08774,-0.01113 0.211108,-0.0226 0.367172,-0.05193 0.218284,-0.04925 0.45142,-0.13198 0.684571,-0.198694 0.241407,-0.06907 0.462102,-0.111709 0.678484,-0.100356 0.17431,0.0068 0.336586,0.04919 0.478062,0.100986 0.181067,0.06629 0.34639,0.155567 0.455665,0.21651 0.153917,0.08584 0.239739,0.140493 0.444766,0.262608 0.133116,0.07929 0.295081,0.173309 0.465014,0.252036 0.181755,0.08206 0.396068,0.157113 0.628579,0.189358 0.21376,0.02965 0.440324,0.022 0.655643,-0.04303 0.231367,-0.06931 0.434878,-0.200779 0.596254,-0.360355 0.176431,-0.174466 0.299969,-0.378092 0.383912,-0.570555 0.01083,-0.03914 0.02024,-0.07221 0.02935,-0.09451 z"
         id="path1738" />
    </g>
  </g>
</svg>
